<svg version="1.2" xmlns="http://www.w3.org/2000/svg" viewBox="0 0 116 116" width="116" height="116">
	<title>Wakelet Logo White-svg</title>
	<style>
		.s0 { fill: #ffffff } 
	</style>
	<path id="Path_1880" class="s0" d="m117.1 33.4l0.1-0.3h-23.6l-4.1 17.1q3-0.8 5.9-1.5 3-0.6 6-1.2 3-0.6 6-1.1 3-0.5 6-0.9zm-93-0.3h-25.1l0.1 0.3 14.7 50c2.9-1.9 9.6-6.2 19.1-11.2zm44.5 0h-19.5l-10.6 36.3q4.3-2.2 8.8-4.2 4.4-2 9-3.9 4.5-1.9 9.1-3.5 4.6-1.7 9.2-3.3zm13.7 48.2l-5.4-19.1q-5.1 1.2-10.1 2.5-5 1.4-10 2.9-5 1.5-9.9 3.1-4.9 1.7-9.8 3.5l-2 6.8-1.3-5.6q-9.6 3.7-19.8 8.3l8.9 29.8h22.3l12.7-44.7 12.9 44.7h22.1l17.3-57.1c-6.2 0.7-14 1.8-22.9 3.5z"/>
</svg>